<?xml version="1.0" encoding="utf-8"?>
<!-- Generator: Adobe Illustrator 16.0.0, SVG Export Plug-In . SVG Version: 6.00 Build 0)  -->
<!DOCTYPE svg PUBLIC "-//W3C//DTD SVG 1.0//EN" "http://www.w3.org/TR/2001/REC-SVG-20010904/DTD/svg10.dtd">
<svg version="1.0" id="Calque_1" xmlns="http://www.w3.org/2000/svg" xmlns:xlink="http://www.w3.org/1999/xlink" x="0px" y="0px"
	 width="50px" height="50px" viewBox="0 0 50 50" enable-background="new 0 0 50 50" xml:space="preserve">
<g>
	<g>
		<path d="M37.975,10.782C37.407,4.751,31.805,0,25,0S12.592,4.751,12.026,10.782C5.309,11.244,0,16.34,0,22.539
			c0,6.5,5.842,11.787,13.021,11.787h5.382l-2.082-2.082h-3.3c-6.03,0-10.938-4.354-10.938-9.705c0-5.354,4.907-9.707,10.938-9.707
			h1.042V11.79c0-5.352,4.907-9.707,10.938-9.707s10.938,4.354,10.938,9.707v1.042h1.041c6.032,0,10.938,4.354,10.938,9.707
			c0,5.351-4.905,9.705-10.938,9.705h-3.301l-2.081,2.082h5.382c7.18,0,13.021-5.287,13.021-11.787
			C50,16.34,44.691,11.244,37.975,10.782z"/>
		<polygon points="19.661,15.838 19.661,27.032 14.055,27.032 25,37.979 35.946,27.032 30.34,27.032 30.34,15.838 		"/>
	</g>
	<g>
		<path d="M3.112,45.415c0,0.346-0.172,0.515-0.515,0.515H0.839c-0.334,0-0.5-0.169-0.5-0.515v-4.604c0-0.347,0.167-0.518,0.5-0.518
			h1.758c0.343,0,0.515,0.171,0.515,0.518v1.318H2.273v-1.114H1.181v4.19h1.092v-1.186h0.839V45.415z"/>
		<path d="M5.989,45.93H3.774v-5.636h0.842v4.886h1.373V45.93z"/>
		<path d="M9.332,45.415c0,0.346-0.171,0.515-0.51,0.515h-1.83c-0.334,0-0.501-0.169-0.501-0.515v-4.604
			c0-0.347,0.167-0.518,0.501-0.518h1.83c0.339,0,0.51,0.171,0.51,0.518V45.415z M8.489,45.206v-4.19H7.333v4.19H8.489z"/>
		<path d="M12.83,45.415c0,0.346-0.174,0.515-0.52,0.515H10.52c-0.34,0-0.511-0.169-0.511-0.515v-5.121h0.843v4.912h1.134v-4.912
			h0.844V45.415z"/>
		<path d="M16.316,44.868c0,0.333-0.099,0.591-0.297,0.779c-0.195,0.188-0.461,0.282-0.795,0.282h-1.719v-5.636h1.719
			c0.334,0,0.6,0.096,0.795,0.287c0.198,0.19,0.297,0.452,0.297,0.781V44.868z M15.47,44.727V41.49c0-0.314-0.165-0.475-0.494-0.475
			H14.35v4.19h0.605C15.298,45.206,15.47,45.046,15.47,44.727z"/>
		<path d="M21.262,45.415c0,0.346-0.172,0.515-0.517,0.515h-1.757c-0.334,0-0.502-0.169-0.502-0.515v-4.604
			c0-0.347,0.168-0.518,0.502-0.518h1.757c0.345,0,0.517,0.171,0.517,0.518v1.318h-0.84v-1.114H19.33v4.19h1.092v-1.186h0.84V45.415
			z"/>
		<path d="M24.766,45.415c0,0.346-0.171,0.515-0.512,0.515h-1.83c-0.334,0-0.5-0.169-0.5-0.515v-4.604
			c0-0.347,0.166-0.518,0.5-0.518h1.83c0.341,0,0.512,0.171,0.512,0.518V45.415z M23.922,45.206v-4.19h-1.156v4.19H23.922z"/>
		<path d="M28.298,45.93h-0.736l-1.352-3.547c0.036,0.173,0.054,0.309,0.054,0.406v3.141h-0.82v-5.636h0.737l1.352,3.476
			c-0.037-0.175-0.056-0.308-0.056-0.408v-3.067h0.821V45.93z"/>
		<path d="M31.831,45.93h-0.736l-1.352-3.547c0.037,0.173,0.056,0.309,0.056,0.406v3.141h-0.821v-5.636h0.736l1.352,3.476
			c-0.037-0.175-0.055-0.308-0.055-0.408v-3.067h0.82V45.93z"/>
		<path d="M34.848,45.93h-2.337v-5.636h2.314v0.744h-1.474v1.646h1.268v0.732h-1.268v1.767h1.496V45.93z"/>
		<path d="M38.197,45.415c0,0.346-0.174,0.515-0.516,0.515h-1.758c-0.333,0-0.501-0.169-0.501-0.515v-4.604
			c0-0.347,0.168-0.518,0.501-0.518h1.758c0.342,0,0.516,0.171,0.516,0.518v1.318h-0.839v-1.114h-1.093v4.19h1.093v-1.186h0.839
			V45.415z"/>
		<path d="M41.309,41.038h-0.928v4.892h-0.839v-4.892h-0.933v-0.744h2.699V41.038z"/>
		<path d="M42.596,45.93h-0.843v-5.636h0.843V45.93z"/>
		<path d="M46.129,45.415c0,0.346-0.173,0.515-0.513,0.515h-1.831c-0.333,0-0.499-0.169-0.499-0.515v-4.604
			c0-0.347,0.166-0.518,0.499-0.518h1.831c0.34,0,0.513,0.171,0.513,0.518V45.415z M45.286,45.206v-4.19H44.13v4.19H45.286z"/>
		<path d="M49.663,45.93h-0.742l-1.349-3.547c0.035,0.173,0.053,0.309,0.053,0.406v3.141h-0.821v-5.636h0.741l1.35,3.476
			c-0.035-0.175-0.053-0.308-0.053-0.408v-3.067h0.821V45.93z"/>
	</g>
</g>
</svg>
